<?xml version="1.0" encoding="utf-8"?>
<!-- Generator: Adobe Illustrator 24.1.2, SVG Export Plug-In . SVG Version: 6.00 Build 0)  -->
<svg version="1.1" id="Layer_1" xmlns="http://www.w3.org/2000/svg" xmlns:xlink="http://www.w3.org/1999/xlink" x="0px" y="0px"
	 viewBox="0 0 423.5 154.5" style="enable-background:new 0 0 423.5 154.5;" xml:space="preserve">
<style type="text/css">
	.st0{fill:#FFA012;}
	.st1{fill:#FFFFFF;}
</style>
<g>
	<polygon class="st0" points="29.6,41.7 29.6,96.8 70.7,96.8 70.7,84.2 43.5,84.2 43.5,73.9 64,73.9 64,63.9 43.5,63.9 43.5,54.2 
		70.7,54.2 70.7,41.7 	"/>
	<path class="st0" d="M84.3,103.7v14.1c0,2.2-1.8,4-4,4h-60c-2.2,0-4-1.8-4-4v-14.1H0.6v35.8c0,8.2,6.6,14.8,14.8,14.8h67
		c8.2,0,14.8-6.6,14.8-14.8v-35.8H84.3z M49.9,146.8c-4.7,0-8.5-3.8-8.5-8.5s3.8-8.5,8.5-8.5s8.5,3.8,8.5,8.5
		C58.5,143,54.6,146.8,49.9,146.8z"/>
	<path class="st0" d="M16.2,35.3V21c0-2.2,1.8-4,4-4h60c2.2,0,4,1.8,4,4v14.3H97V15c0-8.2-6.6-14.8-14.8-14.8h-67
		C7.2,0.2,0.6,6.9,0.6,15v20.3H16.2z"/>
</g>
<g>
	<path class="st1" d="M194.3,77.3c0,4.2-0.8,8.2-2.3,12c-1.6,3.7-3.8,7.1-6.8,10c-3,2.9-6.4,5.2-10.3,6.7c-3.9,1.6-7.9,2.4-12.1,2.4
		c-4.2,0-8.2-0.8-12.1-2.4c-3.9-1.6-7.3-3.8-10.3-6.7c-3-2.9-5.3-6.3-6.9-10s-2.4-7.7-2.4-11.9c0-4.2,0.8-8.2,2.4-12
		c1.6-3.8,3.9-7.1,6.9-10.1c3-2.9,6.4-5.1,10.3-6.7c3.9-1.6,7.9-2.3,12.1-2.3c4.2,0,8.3,0.8,12.2,2.3c3.9,1.6,7.3,3.8,10.3,6.7
		c3,2.9,5.3,6.2,6.8,10C193.5,69,194.3,73,194.3,77.3z M162.7,101.7c3.2,0,6.3-0.6,9.2-1.8c2.9-1.2,5.6-3,7.9-5.4
		c2.3-2.3,4.1-4.9,5.3-7.9c1.2-2.9,1.8-6.1,1.8-9.3c0-3.3-0.6-6.5-1.8-9.5c-1.2-3-3-5.6-5.3-7.9c-2.3-2.3-4.9-4.1-7.9-5.3
		c-2.9-1.2-6-1.8-9.3-1.8c-3.3,0-6.4,0.6-9.4,1.8c-2.9,1.2-5.5,3-7.8,5.3c-2.3,2.3-4.1,5-5.3,8c-1.2,3-1.8,6.1-1.8,9.4
		c0,3.3,0.6,6.4,1.8,9.3c1.2,2.9,3,5.6,5.3,7.9c2.4,2.4,5,4.2,7.9,5.4C156.3,101.1,159.4,101.7,162.7,101.7z"/>
	<path class="st1" d="M212.3,106.7V47.5h13.9c4,0,6.9,0.2,8.7,0.7c1.8,0.4,3.5,1.2,4.9,2.3c1.8,1.4,3.1,3.2,4.1,5.5
		c1,2.3,1.5,4.9,1.5,7.7c0,4.9-1.4,8.5-4.1,11.1c-2.7,2.5-6.7,3.8-11.9,3.8h-1.3l22.6,28.2h-8.9l-21.6-28.2h-1v28.2H212.3z
		 M219.2,53.5v19.8h5.4c5.5,0,9.2-0.7,11-2.1c1.9-1.4,2.8-3.9,2.8-7.4c0-3.8-1-6.5-2.9-8c-1.9-1.5-5.6-2.3-11-2.3H219.2z"/>
	<path class="st1" d="M268.7,106.7V47.5H280c8.4,0,14.3,0.4,17.8,1.3c3.4,0.8,6.5,2.3,9,4.3c3.4,2.6,6,6,7.7,10
		c1.8,4.1,2.6,8.8,2.6,14.1c0,5.3-0.9,10-2.6,14c-1.7,4.1-4.3,7.4-7.7,10c-2.6,2-5.5,3.4-8.8,4.3c-3.3,0.8-8.4,1.3-15.4,1.3H280
		H268.7z M275.8,100.1h4.5c7.3,0,12.3-0.3,15.1-0.9s5.1-1.7,7-3.3c2.4-2,4.3-4.6,5.5-7.8c1.3-3.2,1.9-6.9,1.9-11
		c0-4.2-0.6-7.8-1.9-10.9c-1.3-3.1-3.1-5.7-5.6-7.8c-1.9-1.6-4.2-2.7-7.1-3.3c-2.9-0.7-7.9-1-15-1h-4.5V100.1z"/>
	<path class="st1" d="M335.2,106.7V47.5h31.2V54h-24.2v17h24.2v6.6h-24.2v22.7h24.2v6.6H335.2z"/>
	<path class="st1" d="M384.3,106.7V47.5h13.9c4,0,6.9,0.2,8.7,0.7c1.8,0.4,3.5,1.2,4.9,2.3c1.8,1.4,3.1,3.2,4.1,5.5
		c1,2.3,1.5,4.9,1.5,7.7c0,4.9-1.4,8.5-4.1,11.1c-2.7,2.5-6.7,3.8-11.9,3.8h-1.3l22.6,28.2h-8.9l-21.6-28.2h-1v28.2H384.3z
		 M391.2,53.5v19.8h5.4c5.5,0,9.2-0.7,11-2.1c1.9-1.4,2.8-3.9,2.8-7.4c0-3.8-1-6.5-2.9-8c-1.9-1.5-5.6-2.3-11-2.3H391.2z"/>
</g>
</svg>
